<?xml version="1.0" encoding="UTF-8"?>
<!DOCTYPE svg PUBLIC "-//W3C//DTD SVG 1.1//EN" "http://www.w3.org/Graphics/SVG/1.1/DTD/svg11.dtd">
<!-- Creator: CorelDRAW -->
<svg xmlns="http://www.w3.org/2000/svg" xml:space="preserve" width="5.36787in" height="2.94657in" version="1.1" style="shape-rendering:geometricPrecision; text-rendering:geometricPrecision; image-rendering:optimizeQuality; fill-rule:evenodd; clip-rule:evenodd"
viewBox="0 0 5367.87 2946.57"
 xmlns:xlink="http://www.w3.org/1999/xlink"
 xmlns:xodm="http://www.corel.com/coreldraw/odm/2003">
 <defs>
  <style type="text/css">
   <![CDATA[
    .str0 {stroke:black;stroke-width:3;stroke-miterlimit:2.61313}
    .fil0 {fill:#FB5607;fill-rule:nonzero}
   ]]>
  </style>
 </defs>
 <g id="Layer_x0020_1">
  <metadata id="CorelCorpID_0Corel-Layer"/>
  <path class="fil0 str0" d="M4787.67 1643.89c160.56,0 297.14,58.11 409.77,174.33 112.63,116.22 168.93,274.98 168.93,476.26 0,179.72 -50.32,333.08 -150.96,460.08 -100.64,127 -243.22,190.51 -427.74,190.51 -184.51,0 -327.09,-63.5 -427.73,-190.51 -100.64,-127 -150.96,-280.36 -150.96,-460.08 0,-201.29 56.31,-360.04 168.93,-476.26 112.63,-116.22 249.21,-174.33 409.76,-174.33zm-2293.92 -1625.09c75.19,-28.19 150.37,-21.93 225.56,18.8 115.91,72.06 177.79,180.93 185.62,326.6 7.83,145.68 -68.14,260.81 -227.91,345.4 -275.69,112.78 -573.31,115.92 -892.86,9.4l0 601.5c134.72,21.93 277.26,34.46 427.63,37.59 72.06,3.14 133.15,-23.49 183.27,-79.88 59.52,228.7 -17.23,372.81 -230.27,432.33 -119.04,21.93 -245.92,25.06 -380.64,9.4l0 789.47c0,62.66 3.13,130.02 9.4,202.07 6.27,72.06 25.07,133.15 56.39,183.27 -197.37,-21.93 -401,-21.93 -610.91,0 31.33,-50.12 50.13,-110.43 56.39,-180.92 6.27,-70.49 9.4,-138.63 9.4,-204.42 -3.13,-588.98 -4.7,-1223.37 -4.7,-1903.2 -119.04,6.27 -234.18,43.86 -345.39,112.79 -111.22,68.92 -198.15,172.3 -260.81,310.15 -59.52,144.11 -61.09,294.48 -4.7,451.12 53.26,119.06 118.26,173.87 195.02,164.48 76.76,-9.4 126.09,-53.26 148.02,-131.58 106.52,68.93 163.69,166.82 171.53,293.7 7.83,126.89 -28.19,242.01 -108.09,345.4 -79.88,103.38 -199.72,155.07 -359.49,155.07 -294.49,-31.32 -499.69,-173.09 -615.6,-425.28 -115.92,-252.19 -147.24,-517.7 -93.99,-796.52 53.26,-253.76 173.87,-459.74 361.84,-617.95 187.97,-158.2 430.76,-240.45 728.38,-246.71 209.91,-6.26 426.07,15.67 648.5,65.8 159.78,46.98 319.55,57.95 479.33,32.89 84.59,-18.8 161.33,-62.66 230.26,-131.57 46.99,-46.99 53.26,-103.39 18.8,-169.18zm240.94 902.61c64.7,0 120.41,23.37 167.14,70.09 46.73,46.73 70.09,103.64 70.09,170.74 0,64.7 -23.36,120.41 -70.09,167.14 -46.72,46.73 -102.44,70.09 -167.14,70.09 -67.09,0 -124.01,-23.36 -170.74,-70.09 -46.72,-46.72 -70.09,-102.44 -70.09,-167.14 0,-67.1 23.37,-124.01 70.09,-170.74 46.72,-46.72 103.64,-70.09 170.74,-70.09zm194.1 722.48l25.16 -3.6c-16.77,26.37 -28.15,55.72 -34.14,88.07 -5.99,32.35 -10.19,67.1 -12.58,104.24 -2.4,37.15 -3.59,72.49 -3.59,106.04l0 661.38c-7.19,110.23 9.58,208.47 50.31,294.74 -141.37,-16.78 -288.75,-16.78 -442.11,0 23.96,-35.94 38.34,-81.47 43.13,-136.59 4.79,-55.11 7.19,-106.64 7.19,-154.56l0 -618.24c0,-47.93 -2.4,-99.45 -7.19,-154.56 -4.79,-55.11 -19.17,-101.84 -43.13,-140.18 141.38,7.19 280.37,-8.39 416.95,-46.73zm1240.35 -751.23c-26.36,55.11 -41.33,115.62 -44.93,181.52 -3.59,65.89 -4.19,128.8 -1.8,188.7 -2.4,428.93 -3.59,874.65 -3.59,1337.13 0,124.61 23.96,222.85 71.88,294.74 -107.83,35.94 -196.49,38.94 -265.98,8.98 -69.49,-29.95 -113.83,-80.88 -133,-152.76 -47.93,45.53 -97.05,89.26 -147.37,131.19 -50.32,41.93 -122.21,62.91 -215.67,62.91 -93.45,0 -173.13,-32.95 -239.03,-98.85 -65.89,-65.9 -115.61,-150.37 -149.16,-253.41 -33.55,-103.04 -50.32,-208.48 -50.32,-316.31 0,-146.17 41.33,-286.35 124,-420.54 82.67,-134.19 198.29,-204.88 346.87,-212.07 129.4,7.19 233.63,40.74 312.71,100.64l0 -190.5c7.19,-110.23 -9.58,-208.48 -50.32,-294.74 182.11,-81.48 323.5,-203.69 424.14,-366.63l21.57 0zm-391.79 1139.43c-28.76,-31.15 -64.1,-61.7 -106.04,-91.65 -41.93,-29.96 -94.06,-46.13 -156.36,-48.53 -33.55,0 -65.9,13.78 -97.05,41.34 -31.16,27.56 -56.31,67.69 -75.48,120.41 -19.17,52.71 -28.76,118.61 -28.76,197.69 0,74.28 7.19,137.78 21.57,190.51 14.38,52.72 38.34,92.85 71.89,120.41 33.55,27.56 76.68,41.33 129.4,41.33 55.11,-4.79 103.64,-28.15 145.57,-70.09 41.94,-41.94 73.69,-83.28 95.26,-124.01l0 -377.41zm1010.31 -140.18c-62.3,0 -116.22,34.74 -161.75,104.24 -45.53,69.49 -68.3,153.37 -68.3,251.61 0,98.24 17.37,181.52 52.12,249.81 34.75,68.3 94.06,102.44 177.93,102.44 83.87,0 143.18,-34.15 177.93,-102.44 34.75,-68.29 52.12,-151.57 52.12,-249.81 0,-98.25 -22.17,-182.12 -66.5,-251.61 -44.33,-69.49 -98.84,-104.24 -163.55,-104.24z"/>
 </g>
</svg>
